<svg xmlns="http://www.w3.org/2000/svg" xmlns:xlink="http://www.w3.org/1999/xlink" contentStyleType="text/css" data-diagram-type="SEQUENCE" height="961px" preserveAspectRatio="none" style="width:1510px;height:961px;background:#FFFFFF;" version="1.1" viewBox="0 0 1510 961" width="1510px" zoomAndPan="magnify"><defs/><g><g><title>PancakeService</title><rect fill="#FFFFFF" height="188.7969" style="stroke:#181818;stroke-width:1;" width="10" x="485.2915" y="112.4297"/></g><g><title>PancakeService</title><rect fill="#FFFFFF" height="231.9297" style="stroke:#181818;stroke-width:1;" width="10" x="485.2915" y="330.3594"/></g><g><title>PancakeService</title><rect fill="#FFFFFF" height="241.7969" style="stroke:#181818;stroke-width:1;" width="10" x="485.2915" y="591.4219"/></g><g><title>OrderFactory</title><rect fill="#FFFFFF" height="87.3984" style="stroke:#181818;stroke-width:1;" width="10" x="762.8701" y="141.5625"/></g><g><title>OrderImpl</title><rect fill="#FFFFFF" height="29.1328" style="stroke:#181818;stroke-width:1;" width="10" x="931.6265" y="170.6953"/></g><g><title>OrderImpl</title><rect fill="#FFFFFF" height="14" style="stroke:#181818;stroke-width:1;" width="10" x="931.6265" y="359.4922"/></g><g><title>OrderImpl</title><rect fill="#FFFFFF" height="57.1328" style="stroke:#181818;stroke-width:1;" width="10" x="931.6265" y="620.5547"/></g><g><title>OrderLogger</title><rect fill="#FFFFFF" height="14" style="stroke:#181818;stroke-width:1;" width="10" x="1125.1704" y="258.0938"/></g><g><title>OrderLogger</title><rect fill="#FFFFFF" height="14" style="stroke:#181818;stroke-width:1;" width="10" x="1125.1704" y="519.1563"/></g><g><title>OrderLogger</title><rect fill="#FFFFFF" height="14" style="stroke:#181818;stroke-width:1;" width="10" x="1125.1704" y="649.6875"/></g><g><title>PancakeFactory</title><rect fill="#FFFFFF" height="87.3984" style="stroke:#181818;stroke-width:1;" width="10" x="1249.0981" y="402.625"/></g><g><title>PancakeImpl</title><rect fill="#FFFFFF" height="29.1328" style="stroke:#181818;stroke-width:1;" width="10" x="1447.5996" y="431.7578"/></g><g><title>Customer</title><rect fill="#000000" fill-opacity="0.00000" height="799.0547" width="8" x="38.002" y="81.2969"/><line style="stroke:#181818;stroke-width:0.5;stroke-dasharray:5.0,5.0;" x1="42" x2="42" y1="81.2969" y2="880.3516"/></g><g><title>Employer</title><rect fill="#000000" fill-opacity="0.00000" height="799.0547" width="8" x="175.9995" y="81.2969"/><line style="stroke:#181818;stroke-width:0.5;stroke-dasharray:5.0,5.0;" x1="179.7598" x2="179.7598" y1="81.2969" y2="880.3516"/></g><g><title>PancakeService</title><rect fill="#000000" fill-opacity="0.00000" height="799.0547" width="8" x="486.2915" y="81.2969"/><line style="stroke:#181818;stroke-width:0.5;stroke-dasharray:5.0,5.0;" x1="489.9751" x2="489.9751" y1="81.2969" y2="880.3516"/></g><g><title>OrderFactory</title><rect fill="#000000" fill-opacity="0.00000" height="799.0547" width="8" x="763.8701" y="81.2969"/><line style="stroke:#181818;stroke-width:0.5;stroke-dasharray:5.0,5.0;" x1="767.6421" x2="767.6421" y1="81.2969" y2="880.3516"/></g><g><title>OrderImpl</title><rect fill="#000000" fill-opacity="0.00000" height="799.0547" width="8" x="932.6265" y="81.2969"/><line style="stroke:#181818;stroke-width:0.5;stroke-dasharray:5.0,5.0;" x1="936.3394" x2="936.3394" y1="81.2969" y2="880.3516"/></g><g><title>OrderLogger</title><rect fill="#000000" fill-opacity="0.00000" height="799.0547" width="8" x="1126.1704" y="81.2969"/><line style="stroke:#181818;stroke-width:0.5;stroke-dasharray:5.0,5.0;" x1="1129.9009" x2="1129.9009" y1="81.2969" y2="880.3516"/></g><g><title>PancakeFactory</title><rect fill="#000000" fill-opacity="0.00000" height="799.0547" width="8" x="1250.0981" y="81.2969"/><line style="stroke:#181818;stroke-width:0.5;stroke-dasharray:5.0,5.0;" x1="1253.4399" x2="1253.4399" y1="81.2969" y2="880.3516"/></g><g><title>PancakeImpl</title><rect fill="#000000" fill-opacity="0.00000" height="799.0547" width="8" x="1448.5996" y="81.2969"/><line style="stroke:#181818;stroke-width:0.5;stroke-dasharray:5.0,5.0;" x1="1451.8823" x2="1451.8823" y1="81.2969" y2="880.3516"/></g><g class="participant participant-head" data-participant="Customer"><text fill="#000000" font-family="sans-serif" font-size="14" lengthAdjust="spacing" textLength="68.0039" x="5" y="77.9951">Customer</text><ellipse cx="42.002" cy="13.5" fill="#E2E2F0" rx="8" ry="8" style="stroke:#181818;stroke-width:0.5;"/><path d="M42.002,21.5 L42.002,48.5 M29.002,29.5 L55.002,29.5 M42.002,48.5 L29.002,63.5 M42.002,48.5 L55.002,63.5" fill="none" style="stroke:#181818;stroke-width:0.5;"/></g><g class="participant participant-tail" data-participant="Customer"><text fill="#000000" font-family="sans-serif" font-size="14" lengthAdjust="spacing" textLength="68.0039" x="5" y="892.3467">Customer</text><ellipse cx="42.002" cy="904.1484" fill="#E2E2F0" rx="8" ry="8" style="stroke:#181818;stroke-width:0.5;"/><path d="M42.002,912.1484 L42.002,939.1484 M29.002,920.1484 L55.002,920.1484 M42.002,939.1484 L29.002,954.1484 M42.002,939.1484 L55.002,954.1484" fill="none" style="stroke:#181818;stroke-width:0.5;"/></g><g class="participant participant-head" data-participant="Employer"><text fill="#000000" font-family="sans-serif" font-size="14" lengthAdjust="spacing" textLength="66.4795" x="143.7598" y="77.9951">Employer</text><ellipse cx="179.9995" cy="13.5" fill="#E2E2F0" rx="8" ry="8" style="stroke:#181818;stroke-width:0.5;"/><path d="M179.9995,21.5 L179.9995,48.5 M166.9995,29.5 L192.9995,29.5 M179.9995,48.5 L166.9995,63.5 M179.9995,48.5 L192.9995,63.5" fill="none" style="stroke:#181818;stroke-width:0.5;"/></g><g class="participant participant-tail" data-participant="Employer"><text fill="#000000" font-family="sans-serif" font-size="14" lengthAdjust="spacing" textLength="66.4795" x="143.7598" y="892.3467">Employer</text><ellipse cx="179.9995" cy="904.1484" fill="#E2E2F0" rx="8" ry="8" style="stroke:#181818;stroke-width:0.5;"/><path d="M179.9995,912.1484 L179.9995,939.1484 M166.9995,920.1484 L192.9995,920.1484 M179.9995,939.1484 L166.9995,954.1484 M179.9995,939.1484 L192.9995,954.1484" fill="none" style="stroke:#181818;stroke-width:0.5;"/></g><g class="participant participant-head" data-participant="PS"><rect fill="#E2E2F0" height="30.2969" rx="2.5" ry="2.5" style="stroke:#181818;stroke-width:0.5;" width="124.6328" x="427.9751" y="50"/><text fill="#000000" font-family="sans-serif" font-size="14" lengthAdjust="spacing" textLength="110.6328" x="434.9751" y="69.9951">PancakeService</text></g><g class="participant participant-tail" data-participant="PS"><rect fill="#E2E2F0" height="30.2969" rx="2.5" ry="2.5" style="stroke:#181818;stroke-width:0.5;" width="124.6328" x="427.9751" y="879.3516"/><text fill="#000000" font-family="sans-serif" font-size="14" lengthAdjust="spacing" textLength="110.6328" x="434.9751" y="899.3467">PancakeService</text></g><g class="participant participant-head" data-participant="OF"><rect fill="#E2E2F0" height="30.2969" rx="2.5" ry="2.5" style="stroke:#181818;stroke-width:0.5;" width="106.4561" x="714.6421" y="50"/><text fill="#000000" font-family="sans-serif" font-size="14" lengthAdjust="spacing" textLength="92.4561" x="721.6421" y="69.9951">OrderFactory</text></g><g class="participant participant-tail" data-participant="OF"><rect fill="#E2E2F0" height="30.2969" rx="2.5" ry="2.5" style="stroke:#181818;stroke-width:0.5;" width="106.4561" x="714.6421" y="879.3516"/><text fill="#000000" font-family="sans-serif" font-size="14" lengthAdjust="spacing" textLength="92.4561" x="721.6421" y="899.3467">OrderFactory</text></g><g class="participant participant-head" data-participant="OI"><rect fill="#E2E2F0" height="30.2969" rx="2.5" ry="2.5" style="stroke:#181818;stroke-width:0.5;" width="84.5742" x="894.3394" y="50"/><text fill="#000000" font-family="sans-serif" font-size="14" lengthAdjust="spacing" textLength="70.5742" x="901.3394" y="69.9951">OrderImpl</text></g><g class="participant participant-tail" data-participant="OI"><rect fill="#E2E2F0" height="30.2969" rx="2.5" ry="2.5" style="stroke:#181818;stroke-width:0.5;" width="84.5742" x="894.3394" y="879.3516"/><text fill="#000000" font-family="sans-serif" font-size="14" lengthAdjust="spacing" textLength="70.5742" x="901.3394" y="899.3467">OrderImpl</text></g><g class="participant participant-head" data-participant="OL"><rect fill="#E2E2F0" height="30.2969" rx="2.5" ry="2.5" style="stroke:#181818;stroke-width:0.5;" width="102.5391" x="1078.9009" y="50"/><text fill="#000000" font-family="sans-serif" font-size="14" lengthAdjust="spacing" textLength="88.5391" x="1085.9009" y="69.9951">OrderLogger</text></g><g class="participant participant-tail" data-participant="OL"><rect fill="#E2E2F0" height="30.2969" rx="2.5" ry="2.5" style="stroke:#181818;stroke-width:0.5;" width="102.5391" x="1078.9009" y="879.3516"/><text fill="#000000" font-family="sans-serif" font-size="14" lengthAdjust="spacing" textLength="88.5391" x="1085.9009" y="899.3467">OrderLogger</text></g><g class="participant participant-head" data-participant="PF"><rect fill="#E2E2F0" height="30.2969" rx="2.5" ry="2.5" style="stroke:#181818;stroke-width:0.5;" width="125.3164" x="1191.4399" y="50"/><text fill="#000000" font-family="sans-serif" font-size="14" lengthAdjust="spacing" textLength="111.3164" x="1198.4399" y="69.9951">PancakeFactory</text></g><g class="participant participant-tail" data-participant="PF"><rect fill="#E2E2F0" height="30.2969" rx="2.5" ry="2.5" style="stroke:#181818;stroke-width:0.5;" width="125.3164" x="1191.4399" y="879.3516"/><text fill="#000000" font-family="sans-serif" font-size="14" lengthAdjust="spacing" textLength="111.3164" x="1198.4399" y="899.3467">PancakeFactory</text></g><g class="participant participant-head" data-participant="PI"><rect fill="#E2E2F0" height="30.2969" rx="2.5" ry="2.5" style="stroke:#181818;stroke-width:0.5;" width="103.4346" x="1400.8823" y="50"/><text fill="#000000" font-family="sans-serif" font-size="14" lengthAdjust="spacing" textLength="89.4346" x="1407.8823" y="69.9951">PancakeImpl</text></g><g class="participant participant-tail" data-participant="PI"><rect fill="#E2E2F0" height="30.2969" rx="2.5" ry="2.5" style="stroke:#181818;stroke-width:0.5;" width="103.4346" x="1400.8823" y="879.3516"/><text fill="#000000" font-family="sans-serif" font-size="14" lengthAdjust="spacing" textLength="89.4346" x="1407.8823" y="899.3467">PancakeImpl</text></g><g><title>PancakeService</title><rect fill="#FFFFFF" height="188.7969" style="stroke:#181818;stroke-width:1;" width="10" x="485.2915" y="112.4297"/></g><g><title>PancakeService</title><rect fill="#FFFFFF" height="231.9297" style="stroke:#181818;stroke-width:1;" width="10" x="485.2915" y="330.3594"/></g><g><title>PancakeService</title><rect fill="#FFFFFF" height="241.7969" style="stroke:#181818;stroke-width:1;" width="10" x="485.2915" y="591.4219"/></g><g><title>OrderFactory</title><rect fill="#FFFFFF" height="87.3984" style="stroke:#181818;stroke-width:1;" width="10" x="762.8701" y="141.5625"/></g><g><title>OrderImpl</title><rect fill="#FFFFFF" height="29.1328" style="stroke:#181818;stroke-width:1;" width="10" x="931.6265" y="170.6953"/></g><g><title>OrderImpl</title><rect fill="#FFFFFF" height="14" style="stroke:#181818;stroke-width:1;" width="10" x="931.6265" y="359.4922"/></g><g><title>OrderImpl</title><rect fill="#FFFFFF" height="57.1328" style="stroke:#181818;stroke-width:1;" width="10" x="931.6265" y="620.5547"/></g><g><title>OrderLogger</title><rect fill="#FFFFFF" height="14" style="stroke:#181818;stroke-width:1;" width="10" x="1125.1704" y="258.0938"/></g><g><title>OrderLogger</title><rect fill="#FFFFFF" height="14" style="stroke:#181818;stroke-width:1;" width="10" x="1125.1704" y="519.1563"/></g><g><title>OrderLogger</title><rect fill="#FFFFFF" height="14" style="stroke:#181818;stroke-width:1;" width="10" x="1125.1704" y="649.6875"/></g><g><title>PancakeFactory</title><rect fill="#FFFFFF" height="87.3984" style="stroke:#181818;stroke-width:1;" width="10" x="1249.0981" y="402.625"/></g><g><title>PancakeImpl</title><rect fill="#FFFFFF" height="29.1328" style="stroke:#181818;stroke-width:1;" width="10" x="1447.5996" y="431.7578"/></g><g class="message" data-participant-1="Customer" data-participant-2="PS"><polygon fill="#181818" points="473.2915,108.4297,483.2915,112.4297,473.2915,116.4297,477.2915,112.4297" style="stroke:#181818;stroke-width:1;"/><line style="stroke:#181818;stroke-width:1;" x1="42.002" x2="479.2915" y1="112.4297" y2="112.4297"/><text fill="#000000" font-family="sans-serif" font-size="13" lengthAdjust="spacing" textLength="224.9546" x="49.002" y="107.3638">createOrder(building: 5, room: 10)</text></g><g class="message" data-participant-1="PS" data-participant-2="OF"><polygon fill="#181818" points="750.8701,137.5625,760.8701,141.5625,750.8701,145.5625,754.8701,141.5625" style="stroke:#181818;stroke-width:1;"/><line style="stroke:#181818;stroke-width:1;" x1="495.2915" x2="756.8701" y1="141.5625" y2="141.5625"/><text fill="#000000" font-family="sans-serif" font-size="13" lengthAdjust="spacing" textLength="121.9448" x="502.2915" y="136.4966">createOrder(5, 10)</text></g><g class="message" data-participant-1="OF" data-participant-2="OI"><polygon fill="#181818" points="919.6265,166.6953,929.6265,170.6953,919.6265,174.6953,923.6265,170.6953" style="stroke:#181818;stroke-width:1;"/><line style="stroke:#181818;stroke-width:1;" x1="772.8701" x2="925.6265" y1="170.6953" y2="170.6953"/><text fill="#000000" font-family="sans-serif" font-size="13" lengthAdjust="spacing" textLength="139.7563" x="779.8701" y="165.6294">new OrderImpl(5, 10)</text></g><g class="message" data-participant-1="OI" data-participant-2="OF"><polygon fill="#181818" points="783.8701,195.8281,773.8701,199.8281,783.8701,203.8281,779.8701,199.8281" style="stroke:#181818;stroke-width:1;"/><line style="stroke:#181818;stroke-width:1;stroke-dasharray:2.0,2.0;" x1="777.8701" x2="935.6265" y1="199.8281" y2="199.8281"/><text fill="#000000" font-family="sans-serif" font-size="13" lengthAdjust="spacing" textLength="96.3765" x="789.8701" y="194.7622">Order instance</text></g><g class="message" data-participant-1="OF" data-participant-2="PS"><polygon fill="#181818" points="506.2915,224.9609,496.2915,228.9609,506.2915,232.9609,502.2915,228.9609" style="stroke:#181818;stroke-width:1;"/><line style="stroke:#181818;stroke-width:1;stroke-dasharray:2.0,2.0;" x1="500.2915" x2="766.8701" y1="228.9609" y2="228.9609"/><text fill="#000000" font-family="sans-serif" font-size="13" lengthAdjust="spacing" textLength="96.3765" x="512.2915" y="223.895">Order instance</text></g><g class="message" data-participant-1="PS" data-participant-2="OL"><polygon fill="#181818" points="1113.1704,254.0938,1123.1704,258.0938,1113.1704,262.0938,1117.1704,258.0938" style="stroke:#181818;stroke-width:1;"/><line style="stroke:#181818;stroke-width:1;" x1="495.2915" x2="1119.1704" y1="258.0938" y2="258.0938"/><text fill="#000000" font-family="sans-serif" font-size="13" lengthAdjust="spacing" textLength="153.7593" x="502.2915" y="253.0278">logOrderCreated(order)</text></g><g class="message" data-participant-1="OL" data-participant-2="PS"><polygon fill="#181818" points="506.2915,268.0938,496.2915,272.0938,506.2915,276.0938,502.2915,272.0938" style="stroke:#181818;stroke-width:1;"/><line style="stroke:#181818;stroke-width:1;stroke-dasharray:2.0,2.0;" x1="500.2915" x2="1129.1704" y1="272.0938" y2="272.0938"/></g><g class="message" data-participant-1="PS" data-participant-2="Customer"><polygon fill="#181818" points="53.002,297.2266,43.002,301.2266,53.002,305.2266,49.002,301.2266" style="stroke:#181818;stroke-width:1;"/><line style="stroke:#181818;stroke-width:1;stroke-dasharray:2.0,2.0;" x1="47.002" x2="489.2915" y1="301.2266" y2="301.2266"/><text fill="#000000" font-family="sans-serif" font-size="13" lengthAdjust="spacing" textLength="65.3555" x="59.002" y="296.1606">OrderDTO</text></g><g class="message" data-participant-1="Employer" data-participant-2="PS"><polygon fill="#181818" points="473.2915,326.3594,483.2915,330.3594,473.2915,334.3594,477.2915,330.3594" style="stroke:#181818;stroke-width:1;"/><line style="stroke:#181818;stroke-width:1;" x1="179.9995" x2="479.2915" y1="330.3594" y2="330.3594"/><text fill="#000000" font-family="sans-serif" font-size="13" lengthAdjust="spacing" textLength="286.292" x="186.9995" y="325.2935">addPancakes(orderId, ["dark chocolate"], 2)</text></g><g class="message" data-participant-1="PS" data-participant-2="OI"><polygon fill="#181818" points="919.6265,355.4922,929.6265,359.4922,919.6265,363.4922,923.6265,359.4922" style="stroke:#181818;stroke-width:1;"/><line style="stroke:#181818;stroke-width:1;" x1="495.2915" x2="925.6265" y1="359.4922" y2="359.4922"/><text fill="#000000" font-family="sans-serif" font-size="13" lengthAdjust="spacing" textLength="164.7153" x="502.2915" y="354.4263">validateOrderState(NEW)</text></g><g class="message" data-participant-1="OI" data-participant-2="PS"><polygon fill="#181818" points="506.2915,369.4922,496.2915,373.4922,506.2915,377.4922,502.2915,373.4922" style="stroke:#181818;stroke-width:1;"/><line style="stroke:#181818;stroke-width:1;stroke-dasharray:2.0,2.0;" x1="500.2915" x2="935.6265" y1="373.4922" y2="373.4922"/></g><g class="message" data-participant-1="PS" data-participant-2="PF"><polygon fill="#181818" points="1237.0981,398.625,1247.0981,402.625,1237.0981,406.625,1241.0981,402.625" style="stroke:#181818;stroke-width:1;"/><line style="stroke:#181818;stroke-width:1;" x1="495.2915" x2="1243.0981" y1="402.625" y2="402.625"/><text fill="#000000" font-family="sans-serif" font-size="13" lengthAdjust="spacing" textLength="307.3726" x="502.2915" y="397.5591">createPancake(orderId, ["DARK_CHOCOLATE"])</text></g><g class="message" data-participant-1="PF" data-participant-2="PI"><polygon fill="#181818" points="1435.5996,427.7578,1445.5996,431.7578,1435.5996,435.7578,1439.5996,431.7578" style="stroke:#181818;stroke-width:1;"/><line style="stroke:#181818;stroke-width:1;" x1="1259.0981" x2="1441.5996" y1="431.7578" y2="431.7578"/><text fill="#000000" font-family="sans-serif" font-size="13" lengthAdjust="spacing" textLength="169.5015" x="1266.0981" y="426.6919">new PancakeImpl(builder)</text></g><g class="message" data-participant-1="PI" data-participant-2="PF"><polygon fill="#181818" points="1270.0981,456.8906,1260.0981,460.8906,1270.0981,464.8906,1266.0981,460.8906" style="stroke:#181818;stroke-width:1;"/><line style="stroke:#181818;stroke-width:1;stroke-dasharray:2.0,2.0;" x1="1264.0981" x2="1451.5996" y1="460.8906" y2="460.8906"/><text fill="#000000" font-family="sans-serif" font-size="13" lengthAdjust="spacing" textLength="113.8896" x="1276.0981" y="455.8247">Pancake instance</text></g><g class="message" data-participant-1="PF" data-participant-2="PS"><polygon fill="#181818" points="506.2915,486.0234,496.2915,490.0234,506.2915,494.0234,502.2915,490.0234" style="stroke:#181818;stroke-width:1;"/><line style="stroke:#181818;stroke-width:1;stroke-dasharray:2.0,2.0;" x1="500.2915" x2="1253.0981" y1="490.0234" y2="490.0234"/><text fill="#000000" font-family="sans-serif" font-size="13" lengthAdjust="spacing" textLength="144.1299" x="512.2915" y="484.9575">Pancake instance (x2)</text></g><g class="message" data-participant-1="PS" data-participant-2="OL"><polygon fill="#181818" points="1113.1704,515.1563,1123.1704,519.1563,1113.1704,523.1563,1117.1704,519.1563" style="stroke:#181818;stroke-width:1;"/><line style="stroke:#181818;stroke-width:1;" x1="495.2915" x2="1119.1704" y1="519.1563" y2="519.1563"/><text fill="#000000" font-family="sans-serif" font-size="13" lengthAdjust="spacing" textLength="236.6343" x="502.2915" y="514.0903">logPancakeAdded(orderId, pancake)</text></g><g class="message" data-participant-1="OL" data-participant-2="PS"><polygon fill="#181818" points="506.2915,529.1563,496.2915,533.1563,506.2915,537.1563,502.2915,533.1563" style="stroke:#181818;stroke-width:1;"/><line style="stroke:#181818;stroke-width:1;stroke-dasharray:2.0,2.0;" x1="500.2915" x2="1129.1704" y1="533.1563" y2="533.1563"/></g><g class="message" data-participant-1="PS" data-participant-2="Employer"><polygon fill="#181818" points="190.9995,558.2891,180.9995,562.2891,190.9995,566.2891,186.9995,562.2891" style="stroke:#181818;stroke-width:1;"/><line style="stroke:#181818;stroke-width:1;stroke-dasharray:2.0,2.0;" x1="184.9995" x2="489.2915" y1="562.2891" y2="562.2891"/><text fill="#000000" font-family="sans-serif" font-size="13" lengthAdjust="spacing" textLength="112.7344" x="196.9995" y="557.2231">(implicit success)</text></g><g class="message" data-participant-1="Employer" data-participant-2="PS"><polygon fill="#181818" points="473.2915,587.4219,483.2915,591.4219,473.2915,595.4219,477.2915,591.4219" style="stroke:#181818;stroke-width:1;"/><line style="stroke:#181818;stroke-width:1;" x1="179.9995" x2="479.2915" y1="591.4219" y2="591.4219"/><text fill="#000000" font-family="sans-serif" font-size="13" lengthAdjust="spacing" textLength="138.8042" x="186.9995" y="586.356">deliverOrder(orderId)</text></g><g class="message" data-participant-1="PS" data-participant-2="OI"><polygon fill="#181818" points="919.6265,616.5547,929.6265,620.5547,919.6265,624.5547,923.6265,620.5547" style="stroke:#181818;stroke-width:1;"/><line style="stroke:#181818;stroke-width:1;" x1="495.2915" x2="925.6265" y1="620.5547" y2="620.5547"/><text fill="#000000" font-family="sans-serif" font-size="13" lengthAdjust="spacing" textLength="54.6533" x="502.2915" y="615.4888">deliver()</text></g><g class="message" data-participant-1="OI" data-participant-2="OL"><polygon fill="#181818" points="1113.1704,645.6875,1123.1704,649.6875,1113.1704,653.6875,1117.1704,649.6875" style="stroke:#181818;stroke-width:1;"/><line style="stroke:#181818;stroke-width:1;" x1="941.6265" x2="1119.1704" y1="649.6875" y2="649.6875"/><text fill="#000000" font-family="sans-serif" font-size="13" lengthAdjust="spacing" textLength="164.5439" x="948.6265" y="644.6216">logOrderDelivered(order)</text></g><g class="message" data-participant-1="OL" data-participant-2="OI"><polygon fill="#181818" points="952.6265,659.6875,942.6265,663.6875,952.6265,667.6875,948.6265,663.6875" style="stroke:#181818;stroke-width:1;"/><line style="stroke:#181818;stroke-width:1;stroke-dasharray:2.0,2.0;" x1="946.6265" x2="1129.1704" y1="663.6875" y2="663.6875"/></g><g class="message" data-participant-1="OI" data-participant-2="PS"><polygon fill="#181818" points="506.2915,673.6875,496.2915,677.6875,506.2915,681.6875,502.2915,677.6875" style="stroke:#181818;stroke-width:1;"/><line style="stroke:#181818;stroke-width:1;stroke-dasharray:2.0,2.0;" x1="500.2915" x2="935.6265" y1="677.6875" y2="677.6875"/></g><g class="message" data-participant-1="PS" data-participant-2="PS"><line style="stroke:#181818;stroke-width:1;" x1="495.2915" x2="537.2915" y1="706.8203" y2="706.8203"/><line style="stroke:#181818;stroke-width:1;" x1="537.2915" x2="537.2915" y1="706.8203" y2="719.8203"/><line style="stroke:#181818;stroke-width:1;" x1="496.2915" x2="537.2915" y1="719.8203" y2="719.8203"/><polygon fill="#181818" points="506.2915,715.8203,496.2915,719.8203,506.2915,723.8203,502.2915,719.8203" style="stroke:#181818;stroke-width:1;"/><text fill="#000000" font-family="sans-serif" font-size="13" lengthAdjust="spacing" textLength="210.939" x="502.2915" y="701.7544">remove order from activeOrders</text></g><g class="message" data-participant-1="PS" data-participant-2="PS"><line style="stroke:#181818;stroke-width:1;" x1="495.2915" x2="537.2915" y1="748.9531" y2="748.9531"/><line style="stroke:#181818;stroke-width:1;" x1="537.2915" x2="537.2915" y1="748.9531" y2="761.9531"/><line style="stroke:#181818;stroke-width:1;" x1="496.2915" x2="537.2915" y1="761.9531" y2="761.9531"/><polygon fill="#181818" points="506.2915,757.9531,496.2915,761.9531,506.2915,765.9531,502.2915,761.9531" style="stroke:#181818;stroke-width:1;"/><text fill="#000000" font-family="sans-serif" font-size="13" lengthAdjust="spacing" textLength="180.0576" x="502.2915" y="743.8872">add order to finishedOrders</text></g><g class="message" data-participant-1="PS" data-participant-2="PS"><line style="stroke:#181818;stroke-width:1;" x1="495.2915" x2="537.2915" y1="791.0859" y2="791.0859"/><line style="stroke:#181818;stroke-width:1;" x1="537.2915" x2="537.2915" y1="791.0859" y2="804.0859"/><line style="stroke:#181818;stroke-width:1;" x1="496.2915" x2="537.2915" y1="804.0859" y2="804.0859"/><polygon fill="#181818" points="506.2915,800.0859,496.2915,804.0859,506.2915,808.0859,502.2915,804.0859" style="stroke:#181818;stroke-width:1;"/><text fill="#000000" font-family="sans-serif" font-size="13" lengthAdjust="spacing" textLength="243.5786" x="502.2915" y="786.02">map pancakes to List&lt;PancakeDTO&gt;</text></g><g class="message" data-participant-1="PS" data-participant-2="Employer"><polygon fill="#181818" points="190.9995,829.2188,180.9995,833.2188,190.9995,837.2188,186.9995,833.2188" style="stroke:#181818;stroke-width:1;"/><line style="stroke:#181818;stroke-width:1;stroke-dasharray:2.0,2.0;" x1="184.9995" x2="489.2915" y1="833.2188" y2="833.2188"/><text fill="#000000" font-family="sans-serif" font-size="13" lengthAdjust="spacing" textLength="65.3555" x="196.9995" y="828.1528">OrderDTO</text></g><g class="message" data-participant-1="Employer" data-participant-2="Customer"><polygon fill="#181818" points="53.002,858.3516,43.002,862.3516,53.002,866.3516,49.002,862.3516" style="stroke:#181818;stroke-width:1;"/><line style="stroke:#181818;stroke-width:1;" x1="47.002" x2="178.9995" y1="862.3516" y2="862.3516"/><text fill="#000000" font-family="sans-serif" font-size="13" lengthAdjust="spacing" textLength="113.9976" x="59.002" y="857.2856">deliver OrderDTO</text></g><!--SRC=[fLJ1Yjim4BtdAuQS7CX2kz1BA0iXYQcfgKMpq4DPYcffis9joqYAs_txZYp9KHmdBDGdotflPjxC6zFII0MRepQovcf6- -EkRYlvXiUMAYDAqTB6m9pGfgIlVCzL9qe-1wg1xCyXXM9SfNsGjnvGf1E03CExsspYDfU70rVkFf-i84v0qad8a89airbG1tSFM36ie5IS6jvdItuVHSL4SrZ1foKeAUiLVFomi8qG7OAiHC07USWkqX4REHPj4GC3DOD_46zP6R8Q_WS6zJ7ld9kTk1dSXPGz4KIZ3ShZ0uJnCT4c32edI34XZNNbYA_aeQTiUdqiaVOmrfQxDBbFSn4r7wBY_T1uNypsiHWJCCGis6sO3sNCpr6xAZAsX9zpHjKhb2-ob1LIvqzBkBywADloZbQ2XL7j3RubttO_nefyux9hYh8eB3dDtnSOrxTTV__wQ_Ebs1Jv-d4tVnfb8YTVaDuN9FWYCgtpO-ZxEV_a3UAhjULuyartU2g9t36cGVBtVd4ndIcJUEQQiM0IAxzrN__BBuCHLf08VCUjDg2FPScrNhpBEOnNekFABQUlxQP7F26PTaLmncX3jevqlYDJkYFjKSHB_UzqdrMeU2qx3drYU5QoTacToVKOZPlaeKR2isY4Vk5i6bhJDWnHMtGkjFdiPusB-t1bK3SMstw99nJz3dpRhx83xHy0]--></g></svg>